<svg width="70" height="70" viewBox="0 0 70 70" fill="none" xmlns="http://www.w3.org/2000/svg">
<circle cx="35" cy="35" r="35" fill="#8D7370"/>
<path d="M35.48 33.82C37.54 34.02 39.11 34.66 40.19 35.74C41.27 36.8 41.81 38.16 41.81 39.82C41.81 41.02 41.51 42.11 40.91 43.09C40.31 44.05 39.41 44.82 38.21 45.4C37.03 45.96 35.58 46.24 33.86 46.24C32.36 46.24 30.92 46.02 29.54 45.58C28.16 45.12 27.03 44.49 26.15 43.69L27.53 41.32C28.25 42 29.17 42.55 30.29 42.97C31.41 43.37 32.6 43.57 33.86 43.57C35.42 43.57 36.63 43.24 37.49 42.58C38.37 41.92 38.81 41.01 38.81 39.85C38.81 38.69 38.38 37.79 37.52 37.15C36.66 36.51 35.36 36.19 33.62 36.19H31.94V34.09L37.22 27.61H27.11V25H40.97V27.04L35.48 33.82Z" fill="white"/>
</svg>
